# xmcd
#
# Track frame offsets: 
#        300
#        20120
#        41969
#        65407
#        86265
#        100876
#        116817
#        136655
#        154421
#        183031
#        201561
#        223387
#        238750
#        260797
#
# Disc length: 3663 seconds
#
# Revision: 4
# Processed by: cddbd v1.5.2PL0 Copyright (c) Steve Scherf et al.
# Submitted via: ExactAudioCopy v1.0b1
#
DISCID=d90e4b0e
DTITLE=Clifton Chenier - Frenchin' The Blues
DYEAR=1995
DGENRE=Zydeco
TTITLE0=Tu Es Si Jolie
TTITLE1=Les Haricots Sont Pas Sales
TTITLE2=You're Fussing Too Much
TTITLE3=Pinetop's Boogie Woogie
TTITLE4=Marcher Plancher
TTITLE5=Here Little Girl
TTITLE6=Release Me
TTITLE7=Jambalaya
TTITLE8=I'm A Hog For You
TTITLE9=Louisiana Two Steps
TTITLE10=When You Going to Sing For Me?
TTITLE11=Who Who Who
TTITLE12=You Promised Me Love
TTITLE13=Black Girl
EXTD=
EXTT0=
EXTT1=
EXTT2=
EXTT3=
EXTT4=
EXTT5=
EXTT6=
EXTT7=
EXTT8=
EXTT9=
EXTT10=
EXTT11=
EXTT12=
EXTT13=
PLAYORDER=
